{
	"asset":{
		"generator":"Khronos glTF Blender I/O v3.6.6",
		"version":"2.0"
	},
	"extensionsUsed":[
		"KHR_materials_clearcoat",
		"KHR_materials_specular",
		"KHR_materials_ior",
		"KHR_materials_emissive_strength"
	],
	"scene":0,
	"scenes":[
		{
			"extras":{
				"discombobulator":{}
			},
			"name":"Scene",
			"nodes":[
				0,
				1,
				2
			]
		}
	],
	"nodes":[
		{
			"mesh":0,
			"name":"discombobulated_mesh"
		},
		{
			"mesh":1,
			"name":"Main_Hull"
		},
		{
			"mesh":2,
			"name":"Nacelle_Glow",
			"translation":[
				0,
				0,
				0.2821531295776367
			]
		}
	],
	"materials":[
		{
			"doubleSided":true,
			"extensions":{
				"KHR_materials_clearcoat":{
					"clearcoatFactor":1,
					"clearcoatRoughnessFactor":0
				},
				"KHR_materials_specular":{
					"specularColorFactor":[
						0,
						0,
						0
					]
				},
				"KHR_materials_ior":{
					"ior":0
				}
			},
			"name":"Material.001",
			"pbrMetallicRoughness":{
				"baseColorTexture":{
					"index":0
				},
				"roughnessFactor":0.5
			}
		},
		{
			"doubleSided":true,
			"emissiveFactor":[
				0.0029228702187538147,
				1,
				0
			],
			"extensions":{
				"KHR_materials_emissive_strength":{
					"emissiveStrength":1000
				}
			},
			"name":"Material",
			"pbrMetallicRoughness":{
				"baseColorFactor":[
					0,
					0,
					0,
					1
				]
			}
		}
	],
	"meshes":[
		{
			"name":"discombobulated_object.010",
			"primitives":[
				{
					"attributes":{
						"POSITION":0,
						"NORMAL":1
					},
					"indices":2
				}
			]
		},
		{
			"name":"Cube.001",
			"primitives":[
				{
					"attributes":{
						"POSITION":3,
						"TEXCOORD_0":4,
						"NORMAL":5
					},
					"indices":6,
					"material":0
				}
			]
		},
		{
			"name":"Cube.002",
			"primitives":[
				{
					"attributes":{
						"POSITION":7,
						"TEXCOORD_0":8,
						"NORMAL":9
					},
					"indices":10,
					"material":1
				}
			]
		}
	],
	"textures":[
		{
			"sampler":0,
			"source":0
		}
	],
	"images":[
		{
			"mimeType":"image/png",
			"name":"Cube Base Color",
			"uri":"Cube%20Base%20Color.png"
		}
	],
	"accessors":[
		{
			"bufferView":0,
			"componentType":5126,
			"count":197984,
			"max":[
				0.9122313261032104,
				0.5561590194702148,
				1.9500339031219482
			],
			"min":[
				-0.004585727583616972,
				0.05701572448015213,
				-1.2050373554229736
			],
			"type":"VEC3"
		},
		{
			"bufferView":1,
			"componentType":5126,
			"count":197984,
			"type":"VEC3"
		},
		{
			"bufferView":2,
			"componentType":5125,
			"count":297000,
			"type":"SCALAR"
		},
		{
			"bufferView":3,
			"componentType":5126,
			"count":24280,
			"max":[
				0.9094135761260986,
				0.5538115501403809,
				1.9500339031219482
			],
			"min":[
				-0.9094135761260986,
				0.05965778976678848,
				-1.201356053352356
			],
			"type":"VEC3"
		},
		{
			"bufferView":4,
			"componentType":5126,
			"count":24280,
			"type":"VEC2"
		},
		{
			"bufferView":5,
			"componentType":5126,
			"count":24280,
			"type":"VEC3"
		},
		{
			"bufferView":6,
			"componentType":5123,
			"count":59538,
			"type":"SCALAR"
		},
		{
			"bufferView":7,
			"componentType":5126,
			"count":878,
			"max":[
				0.5907001495361328,
				0.4894973039627075,
				-0.7249905467033386
			],
			"min":[
				-0.5907001495361328,
				0.28919506072998047,
				-1.3485466241836548
			],
			"type":"VEC3"
		},
		{
			"bufferView":8,
			"componentType":5126,
			"count":878,
			"type":"VEC2"
		},
		{
			"bufferView":9,
			"componentType":5126,
			"count":878,
			"type":"VEC3"
		},
		{
			"bufferView":10,
			"componentType":5123,
			"count":4296,
			"type":"SCALAR"
		}
	],
	"bufferViews":[
		{
			"buffer":0,
			"byteLength":2375808,
			"byteOffset":0,
			"target":34962
		},
		{
			"buffer":0,
			"byteLength":2375808,
			"byteOffset":2375808,
			"target":34962
		},
		{
			"buffer":0,
			"byteLength":1188000,
			"byteOffset":4751616,
			"target":34963
		},
		{
			"buffer":0,
			"byteLength":291360,
			"byteOffset":5939616,
			"target":34962
		},
		{
			"buffer":0,
			"byteLength":194240,
			"byteOffset":6230976,
			"target":34962
		},
		{
			"buffer":0,
			"byteLength":291360,
			"byteOffset":6425216,
			"target":34962
		},
		{
			"buffer":0,
			"byteLength":119076,
			"byteOffset":6716576,
			"target":34963
		},
		{
			"buffer":0,
			"byteLength":10536,
			"byteOffset":6835652,
			"target":34962
		},
		{
			"buffer":0,
			"byteLength":7024,
			"byteOffset":6846188,
			"target":34962
		},
		{
			"buffer":0,
			"byteLength":10536,
			"byteOffset":6853212,
			"target":34962
		},
		{
			"buffer":0,
			"byteLength":8592,
			"byteOffset":6863748,
			"target":34963
		}
	],
	"samplers":[
		{
			"magFilter":9729,
			"minFilter":9987
		}
	],
	"buffers":[
		{
			"byteLength":6872340,
			"uri":"greek_cruiser.bin"
		}
	]
}
