{
	"asset":{
		"generator":"Khronos glTF Blender I/O v3.6.27",
		"version":"2.0"
	},
	"extensionsUsed":[
		"KHR_materials_specular",
		"KHR_materials_ior"
	],
	"scene":0,
	"scenes":[
		{
			"name":"Scene",
			"nodes":[
				0
			]
		}
	],
	"nodes":[
		{
			"mesh":0,
			"name":"Cube"
		}
	],
	"animations":[
		{
			"channels":[
				{
					"sampler":0,
					"target":{
						"node":0,
						"path":"rotation"
					}
				}
			],
			"name":"CubeAction",
			"samplers":[
				{
					"input":4,
					"interpolation":"LINEAR",
					"output":5
				}
			]
		}
	],
	"materials":[
		{
			"doubleSided":true,
			"emissiveFactor":[
				1,
				0.08897123485803604,
				0
			],
			"extensions":{
				"KHR_materials_specular":{
					"specularColorFactor":[
						0,
						0,
						0
					]
				},
				"KHR_materials_ior":{
					"ior":1.4500000476837158
				}
			},
			"name":"Material",
			"pbrMetallicRoughness":{
				"baseColorFactor":[
					0.19586578011512756,
					0.19586578011512756,
					0.19586578011512756,
					1
				],
				"metallicFactor":0
			}
		}
	],
	"meshes":[
		{
			"name":"Cube",
			"primitives":[
				{
					"attributes":{
						"POSITION":0,
						"NORMAL":1,
						"TEXCOORD_0":2
					},
					"indices":3,
					"material":0
				}
			]
		}
	],
	"accessors":[
		{
			"bufferView":0,
			"componentType":5126,
			"count":25025,
			"max":[
				0.8691802620887756,
				0.900916337966919,
				0.913263738155365
			],
			"min":[
				-0.9474601745605469,
				-0.8374378681182861,
				-0.8573577404022217
			],
			"type":"VEC3"
		},
		{
			"bufferView":1,
			"componentType":5126,
			"count":25025,
			"type":"VEC3"
		},
		{
			"bufferView":2,
			"componentType":5126,
			"count":25025,
			"type":"VEC2"
		},
		{
			"bufferView":3,
			"componentType":5123,
			"count":147456,
			"type":"SCALAR"
		},
		{
			"bufferView":4,
			"componentType":5126,
			"count":169,
			"max":[
				7
			],
			"min":[
				0
			],
			"type":"SCALAR"
		},
		{
			"bufferView":5,
			"componentType":5126,
			"count":169,
			"type":"VEC4"
		}
	],
	"bufferViews":[
		{
			"buffer":0,
			"byteLength":300300,
			"byteOffset":0,
			"target":34962
		},
		{
			"buffer":0,
			"byteLength":300300,
			"byteOffset":300300,
			"target":34962
		},
		{
			"buffer":0,
			"byteLength":200200,
			"byteOffset":600600,
			"target":34962
		},
		{
			"buffer":0,
			"byteLength":294912,
			"byteOffset":800800,
			"target":34963
		},
		{
			"buffer":0,
			"byteLength":676,
			"byteOffset":1095712
		},
		{
			"buffer":0,
			"byteLength":2704,
			"byteOffset":1096388
		}
	],
	"buffers":[
		{
			"byteLength":1099092,
			"uri":"data:application/octet-stream;base64,"
		}
	]
}
