{
	"asset":{
		"generator":"Khronos glTF Blender I/O v3.6.27",
		"version":"2.0"
	},
	"scene":0,
	"scenes":[
		{
			"name":"Scene",
			"nodes":[
				0
			]
		}
	],
	"nodes":[
		{
			"mesh":0,
			"name":"Planet",
			"scale":[
				1003.2307739257812,
				1000.3401489257812,
				1003.2307739257812
			]
		}
	],
	"materials":[
		{
			"doubleSided":true,
			"name":"Material.002",
			"pbrMetallicRoughness":{
				"baseColorTexture":{
					"index":0
				},
				"metallicFactor":0
			}
		}
	],
	"meshes":[
		{
			"name":"Sphere",
			"primitives":[
				{
					"attributes":{
						"POSITION":0,
						"NORMAL":1,
						"TEXCOORD_0":2
					},
					"indices":3,
					"material":0
				}
			]
		}
	],
	"textures":[
		{
			"sampler":0,
			"source":0
		}
	],
	"images":[
		{
			"bufferView":4,
			"mimeType":"image/png",
			"name":"planet_diffuse_texture"
		}
	],
	"accessors":[
		{
			"bufferView":0,
			"componentType":5126,
			"count":8486,
			"max":[
				6.350484371185303,
				6.368833541870117,
				6.350481986999512
			],
			"min":[
				-6.350481986999512,
				-6.368833541870117,
				-6.3504838943481445
			],
			"type":"VEC3"
		},
		{
			"bufferView":1,
			"componentType":5126,
			"count":8486,
			"type":"VEC3"
		},
		{
			"bufferView":2,
			"componentType":5126,
			"count":8486,
			"type":"VEC2"
		},
		{
			"bufferView":3,
			"componentType":5123,
			"count":48384,
			"type":"SCALAR"
		}
	],
	"bufferViews":[
		{
			"buffer":0,
			"byteLength":101832,
			"byteOffset":0,
			"target":34962
		},
		{
			"buffer":0,
			"byteLength":101832,
			"byteOffset":101832,
			"target":34962
		},
		{
			"buffer":0,
			"byteLength":67888,
			"byteOffset":203664,
			"target":34962
		},
		{
			"buffer":0,
			"byteLength":96768,
			"byteOffset":271552,
			"target":34963
		},
		{
			"buffer":0,
			"byteLength":1203966,
			"byteOffset":368320
		}
	],
	"samplers":[
		{
			"magFilter":9729,
			"minFilter":9987
		}
	],
	"buffers":[
		{
			"byteLength":1572288,
			"uri":"data:application/octet-stream;base64,"
		}
	]
}
